HIERARCHY
ROOT hip
{
	OFFSET 0.000000 0.000000 0.000000
	CHANNELS 6 Xposition Yposition Zposition Xrotation Zrotation Yrotation 
	JOINT abdomen
	{
		OFFSET 0.000000 3.422050 0.000000
		CHANNELS 3 Xrotation Zrotation Yrotation 
		JOINT chest
		{
			OFFSET 0.000000 8.486693 -0.684411
			CHANNELS 3 Xrotation Zrotation Yrotation 
			JOINT neck
			{
				OFFSET 0.000000 10.266162 -0.273764
				CHANNELS 3 Xrotation Zrotation Yrotation 
				JOINT head
				{
					OFFSET 0.000000 3.148285 0.000000
					CHANNELS 3 Xrotation Zrotation Yrotation 
					End Site
					{
						OFFSET 0.000000 3.148289 0.000000
					}
				}
			}
			JOINT lCollar
			{
				OFFSET 3.422053 6.707223 -0.821293
				CHANNELS 3 Yrotation Zrotation Xrotation 
				JOINT lShldr
				{
					OFFSET 3.285171 0.000000 0.000000
					CHANNELS 3 Zrotation Yrotation Xrotation 
					JOINT lForeArm
					{
						OFFSET 10.129278 0.000000 0.000000
						CHANNELS 3 Yrotation Zrotation Xrotation 
						JOINT lHand
						{
							OFFSET 8.486692 0.000000 0.000000
							CHANNELS 3 Zrotation Yrotation Xrotation 
							End Site
							{
								OFFSET 4.106464 0.000000 0.000000
							}
						}
					}
				}
			}
			JOINT rCollar
			{
				OFFSET -3.558935 6.707223 -0.821293
				CHANNELS 3 Yrotation Zrotation Xrotation 
				JOINT rShldr
				{
					OFFSET -3.148289 0.000000 0.000000
					CHANNELS 3 Zrotation Yrotation Xrotation 
					JOINT rForeArm
					{
						OFFSET -10.266159 0.000000 0.000000
						CHANNELS 3 Yrotation Zrotation Xrotation 
						JOINT rHand
						{
							OFFSET -8.349810 0.000000 0.000000
							CHANNELS 3 Zrotation Yrotation Xrotation 
							End Site
							{
								OFFSET -4.106464 0.000000 0.000000
							}
						}
					}
				}
			}
		}
	}
	JOINT lThigh
	{
		OFFSET 5.338403 -1.642589 1.368821
		CHANNELS 3 Xrotation Zrotation Yrotation 
		JOINT lShin
		{
			OFFSET -2.053232 -20.121670 0.000000
			CHANNELS 3 Xrotation Zrotation Yrotation 
			JOINT lFoot
			{
				OFFSET 0.000000 -19.300380 -1.231939
				CHANNELS 3 Xrotation Yrotation Zrotation 
				End Site
				{
					OFFSET 0.000000 -2.463878 4.653993
				}
			}
		}
	}
	JOINT rThigh
	{
		OFFSET -5.338403 -1.642589 1.368821
		CHANNELS 3 Xrotation Zrotation Yrotation 
		JOINT rShin
		{
			OFFSET 2.053232 -20.121670 0.000000
			CHANNELS 3 Xrotation Zrotation Yrotation 
			JOINT rFoot
			{
				OFFSET 0.000000 -19.300380 -1.231939
				CHANNELS 3 Xrotation Yrotation Zrotation 
				End Site
				{
					OFFSET 0.000000 -2.463878 4.653993
				}
			}
		}
	}
}
MOTION
Frames: 6
Frame Time: 0.049989
-0.000000 21.502083 16.673447 -74.999123 -0.006935 -179.994675 -10.709906 -2.811975 -1.300144 32.847557 -1.318694 -1.046687 -5.717853 0.000000 0.000000 9.486959 0.000000 0.000000 30.205853 -4.924055 6.247141 41.575214 -57.694847 -37.349583 -118.475357 52.708996 -1.315342 25.310686 -2.593622 36.437496 -29.257769 11.890698 7.428212 -31.122143 58.227329 -28.285334 125.410278 -47.213627 4.869554 -25.362495 3.029460 36.636772 -91.556061 27.067476 9.616942 105.604652 3.812277 -2.202236 54.732471 1.787908 7.405140 -91.615601 -27.178539 -9.725948 105.693008 -3.883052 2.247285 55.290913 -1.932177 -7.474408 
-0.000000 21.502083 16.745220 -74.999123 -0.006935 -179.994675 -10.170976 -2.765705 -1.287237 32.134659 -1.301370 -1.042350 -5.433642 0.000000 0.000000 7.969803 0.000000 0.000000 29.895304 -4.701413 6.113132 41.461571 -57.418121 -37.294880 -118.217476 52.940395 -1.522864 25.242647 -2.456627 36.384262 -28.922369 11.719385 7.229320 -31.090584 57.946682 -28.300028 125.233376 -47.441475 4.736524 -25.292408 2.869284 36.573387 -91.556061 27.067476 9.616942 105.604652 3.812277 -2.202236 54.732471 1.787908 7.405140 -91.615601 -27.178539 -9.725948 105.693008 -3.883052 2.247285 55.290913 -1.932177 -7.474408 
-0.000000 21.502083 16.816994 -74.999123 -0.006935 -179.994675 -9.631869 -2.719542 -1.273891 31.421343 -1.283982 -1.038227 -5.149405 0.000000 0.000000 6.448602 0.000000 0.000000 29.585337 -4.478011 5.980354 41.349270 -57.141315 -37.241608 -117.956795 53.171249 -1.733253 25.174488 -2.319691 36.330872 -28.587740 11.546913 7.031547 -31.059132 57.666012 -28.314898 125.054916 -47.669071 4.601860 -25.222157 2.709178 36.509815 -91.556061 27.067476 9.616942 105.604652 3.812277 -2.202236 54.732471 1.787908 7.405140 -91.615601 -27.178539 -9.725948 105.693008 -3.883052 2.247285 55.290909 -1.932177 -7.474408 
-0.000000 21.502083 16.888767 -74.999123 -0.006935 -179.994675 -9.092619 -2.673494 -1.260107 30.707674 -1.266536 -1.034319 -4.865143 0.000000 0.000000 4.923877 0.000000 0.000000 29.275928 -4.253862 5.848809 41.238251 -56.864418 -37.189709 -117.693260 53.401546 -1.946564 25.106205 -2.182815 36.277332 -28.253866 11.373282 6.834894 -31.027781 57.385319 -28.329943 124.874847 -47.896381 4.465539 -25.151724 2.549145 36.446045 -91.556061 27.067476 9.616942 105.604652 3.812277 -2.202236 54.732471 1.787908 7.405140 -91.615601 -27.178539 -9.725948 105.693008 -3.883052 2.247285 55.290909 -1.932177 -7.474408 
-0.000000 21.502083 16.960539 -74.999123 -0.006935 -179.994675 -8.553246 -2.627566 -1.245887 29.993711 -1.249035 -1.030627 -4.580862 0.000000 0.000000 3.396157 0.000000 0.000000 28.967079 -4.028977 5.718498 41.128513 -56.587479 -37.139183 -117.426796 53.631245 -2.162831 25.037802 -2.046001 36.223625 -27.920753 11.198508 6.639367 -30.996529 57.104607 -28.345154 124.693153 -48.123405 4.327536 -25.081127 2.389186 36.382084 -91.556061 27.067476 9.616942 105.604652 3.812277 -2.202236 54.732471 1.787908 7.405140 -91.615601 -27.178539 -9.725948 105.693008 -3.883052 2.247285 55.290916 -1.932177 -7.474409 
-0.000000 21.502083 17.032312 -74.999123 -0.006935 -179.994675 -8.013767 -2.581764 -1.231231 29.279505 -1.231484 -1.027152 -4.296562 0.000000 0.000000 1.865979 0.000000 0.000000 28.658798 -3.803373 5.589427 41.020012 -56.310471 -37.089977 -117.157440 53.860390 -2.382106 24.969275 -1.909246 36.169758 -27.588428 11.022610 6.444978 -30.965397 56.823921 -28.360554 124.509842 -48.350170 4.187835 -25.010353 2.229301 36.317936 -91.556061 27.067476 9.616942 105.604652 3.812277 -2.202236 54.732471 1.787908 7.405140 -91.615601 -27.178539 -9.725948 105.693008 -3.883052 2.247285 55.290913 -1.932177 -7.474408 
